<svg xmlns="http://www.w3.org/2000/svg" viewBox="0 0 120 90" fill="none" stroke="currentColor" stroke-width="2" stroke-linecap="round" stroke-linejoin="round">
  <line x1="27" y1="83" x2="93" y2="83"/>
  <rect x="29" y="57" width="14" height="22" rx="1"/>
  <path d="M29 61.4L43 61.4M29 65.8L43 65.8M29 70.2L43 70.2M29 74.6L43 74.6"/>
  <line x1="32" y1="14" x2="32" y2="57"/>
  <line x1="40" y1="14" x2="40" y2="57"/>
  <line x1="32" y1="79" x2="32" y2="83"/>
  <line x1="40" y1="79" x2="40" y2="83"/>
  <line x1="27" y1="14" x2="61" y2="14"/>
  <rect x="57" y="60" width="18" height="6" rx="2.5" fill="currentColor" fill-opacity="0.14"/>
  <line x1="66" y1="83" x2="66" y2="66"/>
  <path d="M62.2 55.1L59.3 33.1A2.5 2.5 0 0 0 56.5 30.9L55.5 31.1A2.5 2.5 0 0 0 53.3 33.9L56.2 55.9A2.5 2.5 0 0 0 59 58.1L60 57.9A2.5 2.5 0 0 0 62.2 55.1Z" fill="currentColor" fill-opacity="0.14"/>
  <line x1="40" y1="44" x2="54.7" y2="44"/>
  <circle cx="58" cy="17.5" r="2"/>
  <circle cx="58" cy="17.5" r="0.9" fill="currentColor" stroke="none"/>
  <line x1="59.5" y1="18.8" x2="72.5" y2="30"/>
  <rect x="70" y="30" width="5" height="16" rx="2.5" fill="currentColor" fill-opacity="0.14"/>
  <line x1="89" y1="83" x2="89" y2="76.2"/>
  <circle cx="89" cy="73" r="3.2" fill="currentColor" fill-opacity="0.14"/>
  <circle cx="89" cy="73" r="1" fill="currentColor" stroke="none"/>
  <path d="M77.4 26.9A33 33 0 0 1 90 36.7M89.6 32.5L90 36.7L85.8 36.1"/>
</svg>
