<svg xmlns="http://www.w3.org/2000/svg" viewBox="0 0 120 90" fill="none" stroke="currentColor" stroke-width="2" stroke-linecap="round" stroke-linejoin="round">
  <line x1="27" y1="83" x2="93" y2="83"/>
  <path d="M38.2 68L75.4 57.3A2.5 2.5 0 0 0 77.1 54.2L76.9 53.8A2.5 2.5 0 0 0 73.8 52L36.6 62.7A2.5 2.5 0 0 0 34.9 65.8L35.1 66.2A2.5 2.5 0 0 0 38.2 68Z" fill="currentColor" fill-opacity="0.14"/>
  <line x1="40" y1="68.5" x2="40" y2="83"/>
  <line x1="72" y1="58.5" x2="74" y2="83"/>
  <line x1="87" y1="83" x2="87" y2="62.6"/>
  <circle cx="87" cy="59.4" r="3.2" fill="currentColor" fill-opacity="0.14"/>
  <circle cx="87" cy="59.4" r="1" fill="currentColor" stroke="none"/>
  <line x1="31" y1="83" x2="31" y2="36"/>
  <path d="M31 43L36 43L36 40"/>
</svg>
