<svg xmlns="http://www.w3.org/2000/svg" viewBox="0 0 120 90" fill="none" stroke="currentColor" stroke-width="2" stroke-linecap="round" stroke-linejoin="round">
  <line x1="38" y1="83" x2="82" y2="83"/>
  <line x1="60" y1="83" x2="60" y2="69"/>
  <rect x="48" y="63" width="24" height="6" rx="2.5" fill="currentColor" fill-opacity="0.14"/>
  <rect x="51" y="27" width="18" height="19" rx="2.5" fill="currentColor" fill-opacity="0.14"/>
  <rect x="40.5" y="49" width="5" height="11" rx="2.5" fill="currentColor" fill-opacity="0.14"/>
  <rect x="74.5" y="49" width="5" height="11" rx="2.5" fill="currentColor" fill-opacity="0.14"/>
  <path d="M43 60L43 73L60 73"/>
  <path d="M77 60L77 73L60 73"/>
  <path d="M37 54.5L28 54.5M31.3 57.1L28 54.5L31.3 51.9"/>
  <path d="M83 54.5L92 54.5M88.7 51.9L92 54.5L88.7 57.1"/>
</svg>
