<svg xmlns="http://www.w3.org/2000/svg" viewBox="0 0 120 90" fill="none" stroke="currentColor" stroke-width="2" stroke-linecap="round" stroke-linejoin="round">
  <line x1="25.4" y1="83" x2="75.4" y2="83"/>
  <path d="M25.4 83 V24 H39.4 V83"/>
  <rect x="27.9" y="63" width="9" height="19" rx="1"/>
  <path d="M27.9 69.3 H36.9 M27.9 75.7 H36.9"/>
  <line x1="32.4" y1="63" x2="32.4" y2="28"/>
  <line x1="36.9" y1="72.5" x2="42.4" y2="72.5"/>
  <path d="M53.4 59.7 L50.4 34.7 A2 2 0 0 0 48.2 33 L47.6 33 A2 2 0 0 0 45.9 35.3 L48.9 60.3 A2 2 0 0 0 51.1 62 L51.7 62 A2 2 0 0 0 53.4 59.7 Z" fill="currentColor" fill-opacity="0.14"/>
  <rect x="49.4" y="62" width="22" height="4.6" rx="2" fill="currentColor" fill-opacity="0.14"/>
  <line x1="60.4" y1="83" x2="60.4" y2="66.6"/>
  <line x1="39.4" y1="46" x2="47" y2="46"/>
  <line x1="72.9" y1="59.5" x2="75.3" y2="71.9"/>
  <circle cx="75.9" cy="75" r="3.2" fill="currentColor" fill-opacity="0.14"/>
  <circle cx="72.9" cy="59.5" r="1" fill="currentColor"/>
  <path d="M80.4 80.2 A22 22 0 0 0 93.6 67 M90.5 68.9 L93.6 67 L94.7 70.4"/>
</svg>
